<svg width="681" height="94" viewBox="0 0 681 94" fill="none" xmlns="http://www.w3.org/2000/svg"><path fill-rule="evenodd" clip-rule="evenodd" d="M16 20a4 4 0 0 1 4-4h46a4 4 0 0 1 4 4v46a4 4 0 0 1-4 4H20a4 4 0 0 1-4-4V20zm8 5a1 1 0 0 1 1-1h6a1 1 0 0 1 1 1v6a1 1 0 0 1-1 1h-6a1 1 0 0 1-1-1v-6zm11-1a1 1 0 0 0-1 1v6a1 1 0 0 0 1 1h6a1 1 0 0 0 1-1v-6a1 1 0 0 0-1-1h-6zm9 1a1 1 0 0 1 1-1h6a1 1 0 0 1 1 1v6a1 1 0 0 1-1 1h-6a1 1 0 0 1-1-1v-6zm-19 9a1 1 0 0 0-1 1v6a1 1 0 0 0 1 1h6a1 1 0 0 0 1-1v-6a1 1 0 0 0-1-1h-6zm9 1a1 1 0 0 1 1-1h6a1 1 0 0 1 1 1v6a1 1 0 0 1-1 1h-6a1 1 0 0 1-1-1v-6zm21-1a1 1 0 0 0-1 1v6a1 1 0 0 0 1 1h6a1 1 0 0 0 1-1v-6a1 1 0 0 0-1-1h-6zM24 45a1 1 0 0 1 1-1h6a1 1 0 0 1 1 1v6a1 1 0 0 1-1 1h-6a1 1 0 0 1-1-1v-6zm21-1a1 1 0 0 0-1 1v6a1 1 0 0 0 1 1h6a1 1 0 0 0 1-1v-6a1 1 0 0 0-1-1h-6zm9 1a1 1 0 0 1 1-1h6a1 1 0 0 1 1 1v6a1 1 0 0 1-1 1h-6a1 1 0 0 1-1-1v-6zm-19 9a1 1 0 0 0-1 1v6a1 1 0 0 0 1 1h6a1 1 0 0 0 1-1v-6a1 1 0 0 0-1-1h-6zm9 1a1 1 0 0 1 1-1h6a1 1 0 0 1 1 1v6a1 1 0 0 1-1 1h-6a1 1 0 0 1-1-1v-6zm11-1a1 1 0 0 0-1 1v6a1 1 0 0 0 1 1h6a1 1 0 0 0 1-1v-6a1 1 0 0 0-1-1h-6z" fill="#FEFEFE"/><path d="M113.956 65.218H90.73V16.937c0-.555-.556-1.11-1.113-1.11h-2.503c-.557 0-1.113.555-1.113 1.11v51.61c0 .556.556 1.11 1.113 1.11h26.843c.556 0 1.113-.554 1.113-1.11v-2.219c0-.555-.557-1.11-1.113-1.11z" fill="#FEFEFE"/><path d="M123.97 30.117h-2.364c-.557 0-1.113.555-1.113 1.11v37.46c0 .554.556 1.11 1.113 1.11h2.364c.556 0 1.113-.556 1.113-1.11v-37.46c0-.694-.417-1.11-1.113-1.11z" fill="#FEFEFE"/><path d="M152.204 14.856l.835-2.081c.139-.555 0-1.11-.556-1.388-1.948-.832-3.895-1.387-5.564-1.387-2.92 0-5.424.971-7.093 3.052-1.67 1.943-2.643 4.995-2.643 8.88v8.185l-4.172.278c-.557 0-.974.555-.974 1.11v1.942c0 .555.556 1.11 1.113 1.11h4.033v34.13c0 .554.556 1.11 1.113 1.11h2.364c.557 0 1.113-.556 1.113-1.11v-34.13h7.789c.556 0 1.112-.555 1.112-1.11v-2.22c0-.555-.556-1.11-1.112-1.11h-7.789v-7.77c0-2.635.417-4.578 1.252-5.965.834-1.249 1.947-1.804 3.755-1.804.695 0 1.39.14 1.947.278.696.139 1.391.416 2.087.694a.889.889 0 0 0 .834 0c.278-.278.556-.417.556-.694z" fill="#FEFEFE"/><path d="M168.616 29.146c-2.225 0-4.45.555-6.537 1.526-2.086.971-3.894 2.359-5.424 4.162-1.53 1.804-2.92 4.024-3.755 6.521-.974 2.497-1.391 5.41-1.391 8.602 0 3.19.417 6.104 1.39 8.602.974 2.497 2.226 4.717 3.895 6.52a17.324 17.324 0 0 0 5.842 4.163c2.225.97 4.59 1.387 7.093 1.387 2.92 0 5.424-.416 7.232-1.249 1.809-.832 3.478-1.665 4.868-2.497.557-.277.696-.971.418-1.387l-1.113-2.081c-.139-.278-.417-.417-.695-.555-.278 0-.696 0-.835.138a16.236 16.236 0 0 1-4.311 2.359c-1.53.555-3.338.832-5.286.832-2.086 0-3.894-.416-5.563-1.248-1.67-.833-3.06-1.943-4.312-3.33-1.251-1.387-2.086-3.191-2.781-5.133-.557-1.665-.835-3.469-.974-5.411h26.426c.557 0 .974-.417 1.113-.833.139-.555.139-1.11.139-1.526V47.46c0-5.828-1.391-10.406-4.034-13.458-3.06-3.33-6.815-4.856-11.405-4.856zm10.57 17.62H156.1c.278-1.804.695-3.469 1.252-4.995.695-1.803 1.669-3.33 2.92-4.578 1.113-1.249 2.365-2.22 3.895-2.775 1.39-.694 2.92-.971 4.45-.971 3.2 0 5.842 1.11 7.65 3.468 1.808 2.22 2.782 5.55 2.92 9.85z" fill="#FEFEFE"/><path d="M209.23 29.978c-.696-.416-1.392-.555-2.087-.693-.695-.139-1.252-.139-1.947-.139-2.504 0-4.868.832-6.815 2.497-1.113.971-2.087 2.081-3.06 3.33l-.14-3.746c0-.555-.556-1.11-1.112-1.11h-2.086c-.557 0-1.113.555-1.113 1.11v37.46c0 .554.556 1.11 1.113 1.11h2.364c.556 0 1.113-.556 1.113-1.11V42.88c1.39-3.468 2.92-5.827 4.729-7.076 1.669-1.387 3.199-1.942 4.729-1.942.834 0 1.251 0 1.53.139.278 0 .834.277 1.39.416a.889.889 0 0 0 .835 0c.278-.139.556-.416.556-.694l.696-2.22c.139-.693-.14-1.248-.696-1.526z" fill="#FEFEFE"/><path d="M241.359 30.117h-2.226c-.556 0-1.113.416-1.113 1.11l-.139 1.665c-1.39-.971-2.642-1.665-3.894-2.359-1.808-.832-4.033-1.387-6.537-1.387-2.503 0-4.729.555-6.954 1.526a18.258 18.258 0 0 0-5.703 4.162c-1.669 1.804-2.92 4.024-3.894 6.521-.974 2.497-1.391 5.41-1.391 8.602 0 6.66 1.53 11.793 4.45 15.261 3.06 3.607 7.094 5.41 12.24 5.41 2.782 0 5.285-.693 7.65-1.942a22.392 22.392 0 0 0 4.172-2.913l.14 2.913c0 .555.556.972 1.112.972h2.087c.556 0 1.112-.555 1.112-1.11v-37.46c0-.555-.556-.97-1.112-.97zm-3.478 7.908v22.199c-1.947 1.942-3.894 3.33-5.702 4.44-1.808.97-3.756 1.525-5.842 1.525-1.947 0-3.755-.416-5.146-1.11-1.39-.693-2.782-1.803-3.755-3.19-.974-1.388-1.808-3.192-2.365-5.134-.556-1.942-.834-4.3-.834-6.798 0-2.22.417-4.44.973-6.382a21.124 21.124 0 0 1 2.782-5.272c1.113-1.526 2.504-2.636 4.173-3.469 1.53-.832 3.199-1.248 5.007-1.248 1.808 0 3.616.416 5.285 1.11 1.808.555 3.477 1.803 5.424 3.33z" fill="#FEFEFE"/><path d="M280.858 30.533c-.278-.277-.556-.416-.835-.416h-2.503c-.417 0-.835.278-.974.694l-8.484 24.557c-.556 1.526-1.113 3.33-1.808 5.272-.278 1.11-.695 2.08-.974 3.052-.417-.971-.834-2.081-1.251-3.052a65.123 65.123 0 0 0-2.087-5.134l-9.597-24.556a1.046 1.046 0 0 0-.973-.694h-2.643c-.417 0-.695.139-.973.416-.14.139-.278.694-.14.971l15.439 38.015-.974 3.052c-.973 2.914-2.225 5.41-3.894 7.214-1.39 1.804-3.06 2.636-5.146 2.636-.417 0-.974 0-1.39-.138-.557-.139-.975-.278-1.392-.416a.889.889 0 0 0-.834 0c-.278.138-.418.416-.557.693l-.695 2.22c-.14.555.139 1.11.556 1.249a9.999 9.999 0 0 0 4.034.832c1.808 0 3.477-.416 4.868-1.249 1.39-.693 2.642-1.803 3.755-3.052 1.113-1.248 1.947-2.636 2.643-4.162.695-1.526 1.39-2.913 1.808-4.44l15.02-42.731c.143-.366.222-.612 0-.833z" fill="#FEFEFE"/><path d="M124.11 15.966h-2.782c-.696 0-1.391.555-1.391 1.387v2.775c0 .694.556 1.387 1.39 1.387h2.783c.695 0 1.39-.555 1.39-1.387v-2.775c0-.694-.695-1.387-1.39-1.387z" fill="#FEFEFE"/><path d="M303.82 69.7h18.574c11.833 0 20.627-5.013 20.627-15.779 0-7.231-4.356-11.423-10.273-12.737v-.33c4.685-1.643 7.479-6.574 7.479-11.669 0-9.861-8.136-13.23-19.23-13.23H303.82V69.7zm9.534-31.557V23.35h6.985c6.985 0 10.52 1.972 10.52 7.231 0 4.602-3.206 7.56-10.684 7.56h-6.821zm0 24.16v-17.01h8.053c8.054 0 12.327 2.465 12.327 8.135 0 6-4.437 8.876-12.327 8.876h-8.053zm47.884 8.383c2.22 0 3.863-.329 5.013-.822l-1.232-7.067c-.74.164-1.069.164-1.48.164-.986 0-2.054-.822-2.054-3.123V11.681h-9.45v47.664c0 6.986 2.465 11.341 9.203 11.341zm25.105 0c5.506 0 9.45-2.712 12.985-6.903h.246l.74 5.917h7.725V29.35h-9.451v27.612c-3.04 3.945-5.424 5.588-8.958 5.588-4.355 0-6.245-2.465-6.245-9.122V29.35h-9.451V54.66c0 10.19 3.78 16.025 12.41 16.025zm50.924 0c5.095 0 9.944-1.808 13.806-4.355l-3.205-5.917c-2.958 1.89-5.917 2.958-9.368 2.958-6.492 0-11.094-4.109-11.916-11.258h25.64c.246-.987.411-2.795.411-4.603 0-11.258-5.753-19.148-16.683-19.148-9.45 0-18.572 8.054-18.572 21.203 0 13.313 8.711 21.12 19.887 21.12zm-10.765-24.983c.821-6.492 4.93-10.026 9.697-10.026 5.506 0 8.218 3.78 8.218 10.026h-17.915zm35.159 39.94h9.451V72.987l-.247-6.739c3.287 2.795 6.821 4.438 10.355 4.438 8.958 0 17.258-7.971 17.258-21.778 0-12.49-5.835-20.544-15.861-20.544-4.438 0-8.793 2.383-12.163 5.259h-.328l-.658-4.273h-7.807v56.293zm17.587-22.764c-2.384 0-5.178-.904-8.136-3.37V40.69c3.123-3.04 5.917-4.52 8.875-4.52 6.082 0 8.711 4.767 8.711 12.82 0 9.123-4.109 13.89-9.45 13.89zm28.8 6.821h9.451V45.046c2.465-6.081 6.327-8.3 9.532-8.3 1.726 0 2.795.246 4.192.657l1.643-8.218c-1.232-.575-2.547-.821-4.602-.821-4.273 0-8.547 2.876-11.423 8.135h-.329l-.657-7.15h-7.807V69.7zm30.657 0h9.451V29.35h-9.451V69.7zm4.766-47.418c3.37 0 5.835-2.219 5.835-5.342 0-3.205-2.465-5.423-5.835-5.423-3.369 0-5.834 2.218-5.834 5.423 0 3.123 2.465 5.342 5.834 5.342zM560.213 69.7h9.451V41.512c3.369-3.287 5.67-5.013 9.204-5.013 4.437 0 6.328 2.466 6.328 9.122V69.7h9.45V44.389c0-10.19-3.78-16.026-12.409-16.026-5.506 0-9.615 2.877-13.231 6.41h-.329l-.657-5.423h-7.807V69.7zm60.203.986c3.205 0 5.999-.74 8.218-1.48l-1.644-6.984c-1.151.493-2.794.904-4.191.904-3.863 0-5.671-2.301-5.671-7.068v-19.23h10.273V29.35h-10.273V18.338h-7.889l-1.15 11.012-6.246.41v7.068h5.752v19.23c0 8.711 3.452 14.628 12.821 14.628zm25.932 0c10.191 0 15.697-5.588 15.697-12.491 0-7.56-6.081-10.19-11.588-12.245-4.355-1.561-8.382-2.794-8.382-6 0-2.547 1.89-4.437 5.917-4.437 3.205 0 6.081 1.397 8.876 3.452l4.355-5.753c-3.287-2.547-7.807-4.849-13.395-4.849-9.04 0-14.711 5.013-14.711 12.08 0 6.74 6 9.78 11.341 11.753 4.274 1.643 8.629 3.123 8.629 6.492 0 2.794-2.054 4.849-6.41 4.849-4.109 0-7.56-1.726-11.176-4.52l-4.438 6.08c3.945 3.206 9.779 5.59 15.285 5.59z" fill="#FEFEFE"/></svg>